<svg width="42" height="42" viewBox="0 0 42 42" fill="none" xmlns="http://www.w3.org/2000/svg">
<g filter="url(#filter0_d_4_29)">
<path d="M24.4308 10.032L25.964 11.5651L10.866 26.663H9.33288V25.1299L24.4308 10.032ZM30.43 0C30.0134 0 29.5801 0.166644 29.2635 0.483268L26.2139 3.53285L32.4631 9.782L35.5127 6.73242C35.6671 6.57825 35.7897 6.39513 35.8733 6.19353C35.957 5.99194 36 5.77583 36 5.55758C36 5.33933 35.957 5.12322 35.8733 4.92162C35.7897 4.72003 35.6671 4.53691 35.5127 4.38274L31.6132 0.483268C31.2799 0.14998 30.8633 0 30.43 0ZM24.4308 5.31594L6 23.7468V29.9959H12.2492L30.68 11.5651L24.4308 5.31594Z" fill="#E1930D"/>
</g>
<defs>
<filter id="filter0_d_4_29" x="0.000366688" y="0" width="41.9993" height="41.9952" filterUnits="userSpaceOnUse" color-interpolation-filters="sRGB">
<feFlood flood-opacity="0" result="BackgroundImageFix"/>
<feColorMatrix in="SourceAlpha" type="matrix" values="0 0 0 0 0 0 0 0 0 0 0 0 0 0 0 0 0 0 127 0" result="hardAlpha"/>
<feOffset dy="5.99963"/>
<feGaussianBlur stdDeviation="2.99982"/>
<feComposite in2="hardAlpha" operator="out"/>
<feColorMatrix type="matrix" values="0 0 0 0 0 0 0 0 0 0 0 0 0 0 0 0 0 0 0.25 0"/>
<feBlend mode="normal" in2="BackgroundImageFix" result="effect1_dropShadow_4_29"/>
<feBlend mode="normal" in="SourceGraphic" in2="effect1_dropShadow_4_29" result="shape"/>
</filter>
</defs>
</svg>
