<svg width="38" height="45" viewBox="0 0 38 45" fill="none" xmlns="http://www.w3.org/2000/svg">
<circle cx="19" cy="19" r="18.3448" fill="#FFF9F9" stroke="#191716" stroke-width="1.31034"/>
<path d="M9.10026 15.7567C9.10335 23.1882 15.1862 29.2661 22.6177 29.263C27.572 29.2609 31.6243 26.2191 31.6227 22.5033L31.6225 22.0529C30.1595 23.7425 28.2457 24.7567 25.9938 24.7576C21.6024 24.7594 18.1102 20.7073 18.1081 15.7529C18.1073 13.8388 16.643 12.3756 14.7288 12.3764L12.4768 12.3773C10.5626 12.3781 9.09947 13.8425 9.10026 15.7567Z" fill="#0BA110" stroke="#191716" stroke-width="1.77789" stroke-linecap="round" stroke-linejoin="round"/>
<path d="M10.0691 15.4335C12.3941 17.3818 8.64951 16.8596 14.502 16.8572C18.4037 16.8556 10.9945 18.273 10.9935 15.8076L11.9272 16.07C11.2173 17.9065 13.9341 16.594 12.1606 16.5948C8.70233 16.5962 17.1645 18.7177 17.1631 15.4305C17.1626 14.1605 16.0094 13.1898 14.5019 13.1904L12.7285 13.1911C11.221 13.1918 10.0686 14.1634 10.0691 15.4335Z" fill="#00A110"/>
<path d="M13.605 12.147L13.6013 8.99886C13.601 8.40158 13.838 7.82867 14.2602 7.40615C14.6824 6.98364 15.2551 6.74613 15.8523 6.74588C16.4496 6.74564 17.0225 6.98267 17.445 7.40483C17.8676 7.82699 18.1051 8.39971 18.1053 8.99699M18.1081 15.7531C18.1081 15.7531 15.8561 15.754 13.605 18.007C11.352 15.7559 9.10002 15.7568 9.10002 15.7568" stroke="#191716" stroke-width="1.77789" stroke-linecap="round" stroke-linejoin="round"/>
</svg>
